<svg xmlns="http://www.w3.org/2000/svg" viewBox="0 0 128 128" width="128" height="128">
  <g fill="#000000">
    <!-- Three people forming a connected life/community symbol -->
    <circle cx="64" cy="34" r="15"/>
    <circle cx="35" cy="52" r="12"/>
    <circle cx="93" cy="52" r="12"/>

    <path d="M36 104
             C36 82 47 66 64 66
             C81 66 92 82 92 104
             Z"/>

    <path d="M8 104
             C8 86 18 71 35 68
             C45 66 54 72 58 82
             C49 88 44 95 43 104
             Z"/>

    <path d="M120 104
             C120 86 110 71 93 68
             C83 66 74 72 70 82
             C79 88 84 95 85 104
             Z"/>

    <!-- Heart representing bonds between family, partner and friends -->
    <path d="M64 91
             C57 84 49 79 49 72
             C49 67 53 64 58 64
             C61 64 63 66 64 69
             C65 66 67 64 70 64
             C75 64 79 67 79 72
             C79 79 71 84 64 91 Z"/>
  </g>
</svg>